<svg preserveAspectRatio="none" overflow="visible" style="display: block;" width="22" height="22" viewBox="0 0 22 22" fill="none" xmlns="http://www.w3.org/2000/svg">
<path id="Vector" d="M11 0C4.93384 0 0 4.93113 0 11C0 17.0689 4.93362 22 11 22C17.0664 22 22 17.0689 22 11C22 4.93113 17.0664 0 11 0ZM10.4276 16.643C9.85072 16.643 9.38606 16.1793 9.38606 15.6024C9.38606 15.0255 9.85072 14.5618 10.4276 14.5618C11.0044 14.5618 11.4682 15.0255 11.4682 15.6024C11.4682 16.1793 11.0044 16.643 10.4276 16.643ZM14.0866 9.45836C13.9382 9.7746 13.7545 10.0635 13.5221 10.3391C13.2986 10.5909 13.0575 10.8391 12.8128 11.0749C12.4533 11.4195 12.1167 11.764 11.8154 12.1041C11.5115 12.4398 11.3234 12.8134 11.2474 13.2092C11.2271 13.3497 11.1706 13.461 11.0628 13.5334C10.9586 13.5891 10.7854 13.6173 10.5699 13.6173H10.3102C10.1132 13.6173 9.94973 13.5811 9.83756 13.4972C9.72537 13.4212 9.66883 13.3099 9.66883 13.165C9.66883 12.7772 9.79339 12.3567 10.0293 11.9247L10.0372 11.9088C10.0372 11.9088 10.0372 11.9168 10.0293 11.9203C10.2687 11.4919 10.5779 11.0758 10.9621 10.6756C11.3429 10.2834 11.6794 9.90355 11.9754 9.55992C12.2633 9.22335 12.4038 8.88236 12.4038 8.54667C12.4038 8.08997 12.2633 7.75869 11.9957 7.54138C11.7156 7.32584 11.2916 7.20569 10.7307 7.20569C10.4065 7.20569 10.1255 7.24986 9.87732 7.3382C9.62555 7.43007 9.4056 7.52283 9.2245 7.59791C9.05577 7.67388 8.9206 7.726 8.82433 7.726C8.7678 7.726 8.71214 7.69773 8.66356 7.66239C8.61585 7.61822 8.56373 7.56964 8.5072 7.50603C8.40296 7.37706 8.31197 7.24456 8.22716 7.08906C8.1556 6.9327 8.11497 6.80197 8.11497 6.70127C8.11497 6.50604 8.21568 6.34083 8.40295 6.20922C8.59199 6.08024 8.83138 5.96806 9.1123 5.87705C9.40027 5.79225 9.70505 5.72864 10.0248 5.68801C10.3491 5.6403 10.6582 5.61204 10.9621 5.61204C11.6794 5.61204 12.2837 5.73218 12.7757 5.98394C13.281 6.22774 13.6688 6.56079 13.9294 6.98481C14.1812 7.40178 14.3101 7.86554 14.3101 8.37792C14.3101 8.76662 14.2333 9.12351 14.0849 9.45565L14.0866 9.45836Z" fill="#222222"/>
</svg>
