<svg width="27" height="18" viewBox="0 0 27 18" fill="none" xmlns="http://www.w3.org/2000/svg">
  <path d="M18.0015 0.807866C17.8353 0.623093 17.5928 0.511938 17.3329 0.500895C17.0737 0.489853 16.8209 0.581135 16.6372 0.75118C16.4536 0.921229 16.3558 1.15458 16.3677 1.39531C16.3789 1.63529 16.4997 1.85981 16.6992 2.01442L23.3447 8.17458H1.37848C0.885573 8.19887 0.5 8.57578 0.5 9.03219C0.5 9.48934 0.885573 9.86551 1.37848 9.8898H23.3447L16.688 16.0432C16.3406 16.3811 16.3406 16.9118 16.688 17.2497C16.8606 17.4095 17.0951 17.5 17.3399 17.5C17.584 17.5 17.8186 17.4094 17.9911 17.2497L26.2233 9.62697C26.3998 9.46943 26.5 9.25153 26.5 9.02407C26.5 8.7966 26.3998 8.5787 26.2233 8.42117L18.0015 0.807866Z" fill="black" stroke="black"/>
</svg>
