<svg preserveAspectRatio="none" overflow="visible" style="display: block;" width="82.6716" height="104" viewBox="0 0 82.6716 104" fill="none" xmlns="http://www.w3.org/2000/svg">
<path id="Vector" d="M78.6718 16H61.3358V9.3359C61.3045 4.1914 57.1444 0.0312 51.9999 0H30.6719C25.5274 0.03125 21.3672 4.1914 21.336 9.3359V16H4C1.7969 16 0 17.7891 0 20C0 22.2109 1.7969 24 4 24H5.3359V94.664C5.36715 99.8085 9.5273 103.969 14.6718 104H67.9998C73.1443 103.969 77.3045 99.8085 77.3357 94.664V24H78.6716C80.8747 24 82.6716 22.2109 82.6716 20C82.6716 17.7891 80.8749 16 78.6718 16ZM29.3358 9.3359C29.3358 8.59762 29.9295 8 30.6717 8H52.0077H52.0038C52.3593 8 52.6991 8.14062 52.9491 8.39062C53.1991 8.64062 53.3397 8.98046 53.3397 9.33593V16H29.3397L29.3358 9.3359ZM34.6717 70.6719V70.668C34.6717 72.8789 32.8748 74.668 30.6717 74.668C28.4608 74.668 26.6717 72.8789 26.6717 70.668V49.332V49.3359C26.6717 47.125 28.4608 45.3359 30.6717 45.3359C32.8748 45.3359 34.6717 47.125 34.6717 49.3359V70.6719ZM56.0077 70.6719L56.0038 70.668C56.0038 72.8789 54.2147 74.668 52.0038 74.668C49.8007 74.668 48.0038 72.8789 48.0038 70.668V49.332V49.3359C48.0038 47.125 49.8007 45.3359 52.0038 45.3359C54.2147 45.3359 56.0038 47.125 56.0038 49.3359L56.0077 70.6719Z" fill="#D3D3D3"/>
</svg>
